<mxfile host="app.diagrams.net" modified="2023-08-17T03:43:14.215Z" agent="Mozilla/5.0 (X11; Linux x86_64) AppleWebKit/537.36 (KHTML, like Gecko) Chrome/115.0.0.0 Safari/537.36" version="21.6.8" etag="7uo3p1X6ww0QzP9Sc3wZ" type="github">
  <diagram name="第 1 页" id="e12LFeqs-pdkBqWdCESa">
    <mxGraphModel>
      <root>
        <mxCell id="0" />
        <mxCell id="1" parent="0" />
      </root>
    </mxGraphModel>
  </diagram>
</mxfile>
